<svg width="562" height="364" viewBox="0 0 562 364" fill="none" xmlns="http://www.w3.org/2000/svg">
<g id="House plan">
<rect width="562" height="364" fill="white"/>
<g id="K&#195;&#188;che">
<g id="Rectangle 8">
<mask id="path-1-inside-1_1_2" fill="white">
<path d="M190 131H249V161H190V131Z"/>
</mask>
<path d="M249 131H248V161H249H250V131H249ZM190 161H191V131H190H189V161H190Z" fill="black" mask="url(#path-1-inside-1_1_2)"/>
</g>
<path id="K&#195;&#188;che_2" d="M193.352 136V133.091H193.705V134.534H193.739L195.045 133.091H195.506L194.284 134.403L195.506 136H195.08L194.068 134.648L193.705 135.057V136H193.352ZM197.154 135.108V133.818H197.49V136H197.154V135.631H197.132C197.081 135.741 197.001 135.836 196.893 135.913C196.785 135.99 196.649 136.028 196.484 136.028C196.348 136.028 196.226 135.999 196.12 135.939C196.014 135.878 195.931 135.787 195.87 135.666C195.81 135.544 195.779 135.39 195.779 135.205V133.818H196.115V135.182C196.115 135.341 196.159 135.468 196.248 135.562C196.338 135.657 196.453 135.705 196.592 135.705C196.675 135.705 196.76 135.683 196.846 135.641C196.933 135.598 197.006 135.533 197.065 135.445C197.125 135.357 197.154 135.244 197.154 135.108ZM196.228 133.455C196.169 133.455 196.116 133.432 196.069 133.386C196.024 133.34 196.001 133.287 196.001 133.227C196.001 133.162 196.024 133.108 196.069 133.065C196.116 133.022 196.169 133 196.228 133C196.294 133 196.348 133.022 196.39 133.065C196.434 133.108 196.456 133.162 196.456 133.227C196.456 133.287 196.434 133.34 196.39 133.386C196.348 133.432 196.294 133.455 196.228 133.455ZM197.047 133.455C196.987 133.455 196.934 133.432 196.887 133.386C196.842 133.34 196.819 133.287 196.819 133.227C196.819 133.162 196.842 133.108 196.887 133.065C196.934 133.022 196.987 133 197.047 133C197.112 133 197.166 133.022 197.208 133.065C197.252 133.108 197.274 133.162 197.274 133.227C197.274 133.287 197.252 133.34 197.208 133.386C197.166 133.432 197.112 133.455 197.047 133.455ZM198.99 136.045C198.786 136.045 198.609 135.997 198.462 135.901C198.314 135.804 198.2 135.671 198.121 135.501C198.041 135.332 198.001 135.138 198.001 134.92C198.001 134.699 198.042 134.503 198.124 134.334C198.206 134.163 198.321 134.03 198.467 133.935C198.615 133.838 198.787 133.79 198.984 133.79C199.138 133.79 199.276 133.818 199.399 133.875C199.522 133.932 199.623 134.011 199.702 134.114C199.78 134.216 199.829 134.335 199.848 134.472H199.513C199.487 134.372 199.43 134.284 199.342 134.207C199.255 134.13 199.138 134.091 198.99 134.091C198.859 134.091 198.745 134.125 198.646 134.193C198.549 134.26 198.473 134.356 198.418 134.479C198.364 134.601 198.337 134.744 198.337 134.909C198.337 135.078 198.363 135.224 198.416 135.349C198.47 135.474 198.546 135.571 198.643 135.641C198.742 135.71 198.857 135.744 198.99 135.744C199.077 135.744 199.156 135.729 199.227 135.699C199.298 135.669 199.358 135.625 199.408 135.568C199.457 135.511 199.492 135.443 199.513 135.364H199.848C199.829 135.492 199.782 135.608 199.707 135.712C199.634 135.814 199.536 135.895 199.413 135.956C199.292 136.016 199.151 136.045 198.99 136.045ZM200.673 134.688V136H200.338V133.091H200.673V134.159H200.702C200.753 134.046 200.83 133.957 200.932 133.891C201.035 133.823 201.172 133.79 201.344 133.79C201.492 133.79 201.623 133.82 201.734 133.879C201.846 133.938 201.933 134.028 201.994 134.151C202.057 134.272 202.088 134.426 202.088 134.614V136H201.753V134.636C201.753 134.463 201.708 134.329 201.618 134.234C201.529 134.139 201.405 134.091 201.247 134.091C201.137 134.091 201.039 134.114 200.952 134.161C200.866 134.207 200.797 134.275 200.747 134.364C200.698 134.453 200.673 134.561 200.673 134.688ZM203.616 136.045C203.406 136.045 203.225 135.999 203.072 135.906C202.921 135.812 202.804 135.682 202.721 135.514C202.64 135.346 202.599 135.15 202.599 134.926C202.599 134.703 202.64 134.506 202.721 134.335C202.804 134.164 202.918 134.03 203.065 133.935C203.213 133.838 203.385 133.79 203.582 133.79C203.696 133.79 203.808 133.809 203.919 133.847C204.029 133.884 204.13 133.946 204.221 134.031C204.312 134.116 204.385 134.227 204.439 134.366C204.493 134.506 204.52 134.677 204.52 134.881V135.023H202.838V134.733H204.179C204.179 134.61 204.154 134.5 204.105 134.403C204.056 134.307 203.987 134.231 203.897 134.175C203.808 134.119 203.703 134.091 203.582 134.091C203.449 134.091 203.333 134.124 203.235 134.19C203.139 134.256 203.065 134.341 203.012 134.446C202.96 134.551 202.934 134.664 202.934 134.784V134.977C202.934 135.142 202.963 135.282 203.02 135.396C203.077 135.51 203.157 135.597 203.26 135.656C203.362 135.715 203.481 135.744 203.616 135.744C203.704 135.744 203.784 135.732 203.855 135.707C203.927 135.682 203.989 135.644 204.041 135.594C204.093 135.543 204.133 135.479 204.162 135.403L204.485 135.494C204.451 135.604 204.394 135.701 204.314 135.784C204.233 135.866 204.134 135.931 204.015 135.977C203.897 136.023 203.764 136.045 203.616 136.045Z" fill="black"/>
</g>
<g id="B&#195;&#188;ro">
<rect id="Rectangle 9" x="190.5" y="161.5" width="58" height="29" stroke="black"/>
<path id="B&#195;&#188;ro_2" d="M193.352 167V164.091H194.369C194.572 164.091 194.739 164.126 194.871 164.196C195.002 164.265 195.1 164.358 195.165 164.476C195.229 164.592 195.261 164.722 195.261 164.864C195.261 164.989 195.239 165.092 195.195 165.173C195.151 165.255 195.093 165.319 195.021 165.366C194.95 165.414 194.873 165.449 194.79 165.472V165.5C194.879 165.506 194.968 165.537 195.058 165.594C195.148 165.651 195.223 165.732 195.284 165.838C195.345 165.944 195.375 166.074 195.375 166.227C195.375 166.373 195.342 166.504 195.276 166.621C195.209 166.737 195.105 166.83 194.962 166.898C194.819 166.966 194.633 167 194.403 167H193.352ZM193.705 166.688H194.403C194.634 166.688 194.797 166.643 194.893 166.554C194.991 166.464 195.04 166.355 195.04 166.227C195.04 166.129 195.015 166.038 194.964 165.955C194.914 165.87 194.843 165.803 194.75 165.753C194.657 165.702 194.547 165.676 194.42 165.676H193.705V166.688ZM193.705 165.369H194.358C194.464 165.369 194.56 165.348 194.645 165.307C194.731 165.265 194.799 165.206 194.849 165.131C194.901 165.055 194.926 164.966 194.926 164.864C194.926 164.736 194.882 164.627 194.793 164.538C194.704 164.448 194.563 164.403 194.369 164.403H193.705V165.369ZM197.283 166.108V164.818H197.619V167H197.283V166.631H197.261C197.21 166.741 197.13 166.836 197.022 166.913C196.914 166.99 196.778 167.028 196.613 167.028C196.477 167.028 196.355 166.999 196.249 166.939C196.143 166.878 196.06 166.787 195.999 166.666C195.939 166.544 195.908 166.39 195.908 166.205V164.818H196.244V166.182C196.244 166.341 196.288 166.468 196.377 166.562C196.467 166.657 196.582 166.705 196.721 166.705C196.804 166.705 196.889 166.683 196.975 166.641C197.062 166.598 197.135 166.533 197.194 166.445C197.254 166.357 197.283 166.244 197.283 166.108ZM196.357 164.455C196.298 164.455 196.245 164.432 196.198 164.386C196.153 164.34 196.13 164.287 196.13 164.227C196.13 164.162 196.153 164.108 196.198 164.065C196.245 164.022 196.298 164 196.357 164C196.423 164 196.477 164.022 196.519 164.065C196.563 164.108 196.585 164.162 196.585 164.227C196.585 164.287 196.563 164.34 196.519 164.386C196.477 164.432 196.423 164.455 196.357 164.455ZM197.175 164.455C197.116 164.455 197.063 164.432 197.016 164.386C196.971 164.34 196.948 164.287 196.948 164.227C196.948 164.162 196.971 164.108 197.016 164.065C197.063 164.022 197.116 164 197.175 164C197.241 164 197.295 164.022 197.337 164.065C197.381 164.108 197.403 164.162 197.403 164.227C197.403 164.287 197.381 164.34 197.337 164.386C197.295 164.432 197.241 164.455 197.175 164.455ZM198.233 167V164.818H198.556V165.148H198.579C198.619 165.04 198.691 164.952 198.795 164.885C198.899 164.818 199.017 164.784 199.147 164.784C199.172 164.784 199.203 164.785 199.24 164.786C199.277 164.786 199.305 164.788 199.324 164.79V165.131C199.312 165.128 199.286 165.124 199.245 165.118C199.206 165.111 199.163 165.108 199.119 165.108C199.013 165.108 198.918 165.13 198.835 165.175C198.752 165.218 198.687 165.279 198.639 165.357C198.592 165.433 198.568 165.521 198.568 165.619V167H198.233ZM200.541 167.045C200.344 167.045 200.171 166.999 200.022 166.905C199.875 166.811 199.759 166.68 199.676 166.511C199.593 166.343 199.552 166.146 199.552 165.92C199.552 165.693 199.593 165.495 199.676 165.325C199.759 165.156 199.875 165.024 200.022 164.93C200.171 164.837 200.344 164.79 200.541 164.79C200.738 164.79 200.91 164.837 201.058 164.93C201.207 165.024 201.322 165.156 201.404 165.325C201.488 165.495 201.529 165.693 201.529 165.92C201.529 166.146 201.488 166.343 201.404 166.511C201.322 166.68 201.207 166.811 201.058 166.905C200.91 166.999 200.738 167.045 200.541 167.045ZM200.541 166.744C200.69 166.744 200.814 166.706 200.91 166.629C201.007 166.553 201.078 166.452 201.125 166.327C201.171 166.202 201.194 166.066 201.194 165.92C201.194 165.775 201.171 165.639 201.125 165.513C201.078 165.387 201.007 165.285 200.91 165.207C200.814 165.13 200.69 165.091 200.541 165.091C200.391 165.091 200.268 165.13 200.172 165.207C200.075 165.285 200.003 165.387 199.957 165.513C199.911 165.639 199.887 165.775 199.887 165.92C199.887 166.066 199.911 166.202 199.957 166.327C200.003 166.452 200.075 166.553 200.172 166.629C200.268 166.706 200.391 166.744 200.541 166.744Z" fill="black"/>
</g>
<g id="Wohnzimmer">
<rect id="Rectangle 3" x="190.5" y="87.5" width="58" height="43" stroke="black"/>
<path id="Wohnzimmer_2" d="M193.881 93.3571L193.085 90.448H193.443L194.051 92.8174H194.08L194.699 90.448H195.097L195.716 92.8174H195.744L196.352 90.448H196.71L195.915 93.3571H195.551L194.909 91.039H194.886L194.244 93.3571H193.881ZM197.787 93.4026C197.59 93.4026 197.417 93.3557 197.268 93.262C197.121 93.1682 197.005 93.0371 196.922 92.8685C196.839 92.6999 196.798 92.503 196.798 92.2776C196.798 92.0503 196.839 91.8519 196.922 91.6824C197.005 91.5129 197.121 91.3813 197.268 91.2875C197.417 91.1938 197.59 91.1469 197.787 91.1469C197.984 91.1469 198.156 91.1938 198.304 91.2875C198.453 91.3813 198.568 91.5129 198.651 91.6824C198.734 91.8519 198.776 92.0503 198.776 92.2776C198.776 92.503 198.734 92.6999 198.651 92.8685C198.568 93.0371 198.453 93.1682 198.304 93.262C198.156 93.3557 197.984 93.4026 197.787 93.4026ZM197.787 93.1015C197.937 93.1015 198.06 93.0631 198.156 92.9864C198.253 92.9097 198.324 92.8088 198.371 92.6838C198.417 92.5588 198.44 92.4234 198.44 92.2776C198.44 92.1318 198.417 91.9959 198.371 91.8699C198.324 91.744 198.253 91.6422 198.156 91.5645C198.06 91.4869 197.937 91.448 197.787 91.448C197.637 91.448 197.514 91.4869 197.418 91.5645C197.321 91.6422 197.25 91.744 197.203 91.8699C197.157 91.9959 197.134 92.1318 197.134 92.2776C197.134 92.4234 197.157 92.5588 197.203 92.6838C197.25 92.8088 197.321 92.9097 197.418 92.9864C197.514 93.0631 197.637 93.1015 197.787 93.1015ZM199.623 92.0446V93.3571H199.287V90.448H199.623V91.5162H199.651C199.702 91.4035 199.779 91.3141 199.881 91.2478C199.984 91.1805 200.122 91.1469 200.293 91.1469C200.442 91.1469 200.572 91.1767 200.684 91.2364C200.795 91.2951 200.882 91.3855 200.944 91.5077C201.006 91.6289 201.037 91.7833 201.037 91.9708V93.3571H200.702V91.9935C200.702 91.8202 200.657 91.6862 200.567 91.5915C200.478 91.4959 200.355 91.448 200.196 91.448C200.087 91.448 199.988 91.4712 199.901 91.5177C199.815 91.5641 199.747 91.6318 199.696 91.7208C199.647 91.8098 199.623 91.9177 199.623 92.0446ZM201.986 92.0446V93.3571H201.651V91.1753H201.974V91.5162H202.003C202.054 91.4054 202.132 91.3164 202.236 91.2492C202.34 91.181 202.474 91.1469 202.639 91.1469C202.787 91.1469 202.916 91.1772 203.027 91.2378C203.138 91.2975 203.224 91.3884 203.286 91.5105C203.347 91.6318 203.378 91.7852 203.378 91.9708V93.3571H203.043V91.9935C203.043 91.8221 202.998 91.6886 202.909 91.5929C202.82 91.4963 202.698 91.448 202.543 91.448C202.436 91.448 202.34 91.4712 202.256 91.5177C202.172 91.5641 202.107 91.6318 202.058 91.7208C202.01 91.8098 201.986 91.9177 201.986 92.0446ZM203.928 93.3571V93.1015L205.167 91.5105V91.4878H203.968V91.1753H205.598V91.4424L204.394 93.0219V93.0446H205.638V93.3571H203.928ZM206.154 93.3571V91.1753H206.49V93.3571H206.154ZM206.325 90.8117C206.26 90.8117 206.203 90.7894 206.156 90.7449C206.109 90.7004 206.086 90.6469 206.086 90.5844C206.086 90.5219 206.109 90.4684 206.156 90.4239C206.203 90.3794 206.26 90.3571 206.325 90.3571C206.39 90.3571 206.446 90.3794 206.493 90.4239C206.54 90.4684 206.564 90.5219 206.564 90.5844C206.564 90.6469 206.54 90.7004 206.493 90.7449C206.446 90.7894 206.39 90.8117 206.325 90.8117ZM207.104 93.3571V91.1753H207.428V91.5162H207.456C207.501 91.3998 207.575 91.3093 207.676 91.2449C207.777 91.1796 207.899 91.1469 208.041 91.1469C208.185 91.1469 208.305 91.1796 208.401 91.2449C208.497 91.3093 208.572 91.3998 208.626 91.5162H208.649C208.705 91.4035 208.789 91.3141 208.901 91.2478C209.012 91.1805 209.146 91.1469 209.303 91.1469C209.498 91.1469 209.657 91.208 209.781 91.3302C209.905 91.4514 209.967 91.6403 209.967 91.8969V93.3571H209.632V91.8969C209.632 91.7359 209.588 91.6209 209.5 91.5517C209.412 91.4826 209.308 91.448 209.189 91.448C209.036 91.448 208.917 91.4945 208.832 91.5873C208.748 91.6791 208.706 91.7956 208.706 91.9367V93.3571H208.365V91.8628C208.365 91.7388 208.325 91.6389 208.244 91.5631C208.164 91.4864 208.06 91.448 207.933 91.448C207.846 91.448 207.765 91.4712 207.689 91.5177C207.614 91.5641 207.554 91.6284 207.507 91.7108C207.462 91.7923 207.439 91.8865 207.439 91.9935V93.3571H207.104ZM210.58 93.3571V91.1753H210.904V91.5162H210.933C210.978 91.3998 211.051 91.3093 211.153 91.2449C211.254 91.1796 211.376 91.1469 211.518 91.1469C211.662 91.1469 211.781 91.1796 211.877 91.2449C211.974 91.3093 212.049 91.3998 212.103 91.5162H212.126C212.182 91.4035 212.265 91.3141 212.377 91.2478C212.489 91.1805 212.623 91.1469 212.779 91.1469C212.974 91.1469 213.134 91.208 213.258 91.3302C213.382 91.4514 213.444 91.6403 213.444 91.8969V93.3571H213.109V91.8969C213.109 91.7359 213.065 91.6209 212.977 91.5517C212.888 91.4826 212.785 91.448 212.665 91.448C212.512 91.448 212.393 91.4945 212.309 91.5873C212.225 91.6791 212.183 91.7956 212.183 91.9367V93.3571H211.842V91.8628C211.842 91.7388 211.801 91.6389 211.721 91.5631C211.64 91.4864 211.537 91.448 211.41 91.448C211.323 91.448 211.241 91.4712 211.165 91.5177C211.091 91.5641 211.03 91.6284 210.984 91.7108C210.938 91.7923 210.915 91.8865 210.915 91.9935V93.3571H210.58ZM214.972 93.4026C214.761 93.4026 214.58 93.3562 214.428 93.2634C214.276 93.1696 214.159 93.039 214.077 92.8713C213.995 92.7028 213.955 92.5068 213.955 92.2833C213.955 92.0598 213.995 91.8628 214.077 91.6924C214.159 91.521 214.274 91.3874 214.42 91.2918C214.568 91.1952 214.741 91.1469 214.938 91.1469C215.051 91.1469 215.163 91.1659 215.274 91.2037C215.385 91.2416 215.486 91.3032 215.577 91.3884C215.668 91.4727 215.74 91.5844 215.794 91.7236C215.848 91.8628 215.875 92.0342 215.875 92.2378V92.3799H214.193V92.0901H215.534C215.534 91.967 215.509 91.8571 215.46 91.7605C215.412 91.664 215.343 91.5877 215.253 91.5319C215.164 91.476 215.059 91.448 214.938 91.448C214.804 91.448 214.688 91.4812 214.591 91.5475C214.494 91.6128 214.42 91.698 214.368 91.8032C214.316 91.9083 214.29 92.021 214.29 92.1412V92.3344C214.29 92.4992 214.318 92.6389 214.375 92.7534C214.433 92.8671 214.513 92.9537 214.615 93.0134C214.717 93.0721 214.836 93.1015 214.972 93.1015C215.06 93.1015 215.139 93.0891 215.21 93.0645C215.282 93.039 215.344 93.0011 215.396 92.9509C215.448 92.8998 215.489 92.8363 215.517 92.7605L215.841 92.8515C215.807 92.9613 215.75 93.0579 215.669 93.1412C215.589 93.2236 215.489 93.288 215.371 93.3344C215.252 93.3799 215.119 93.4026 214.972 93.4026ZM216.385 93.3571V91.1753H216.709V91.5049H216.732C216.771 91.3969 216.843 91.3093 216.947 91.2421C217.052 91.1748 217.169 91.1412 217.3 91.1412C217.324 91.1412 217.355 91.1417 217.392 91.1427C217.429 91.1436 217.457 91.145 217.476 91.1469V91.4878C217.464 91.485 217.438 91.4807 217.398 91.475C217.358 91.4684 217.316 91.4651 217.271 91.4651C217.165 91.4651 217.071 91.4873 216.987 91.5319C216.905 91.5754 216.839 91.636 216.791 91.7137C216.744 91.7904 216.72 91.878 216.72 91.9765V93.3571H216.385Z" fill="black"/>
</g>
<g id="Schlafzimmer">
<g id="Rectangle 4">
<mask id="path-8-inside-2_1_2" fill="white">
<path d="M281 87H340V115H281V87Z"/>
</mask>
<path d="M340 87H341V86H340V87ZM281 87V88H340V87V86H281V87ZM340 87H339V115H340H341V87H340Z" fill="black" mask="url(#path-8-inside-2_1_2)"/>
</g>
<path id="Schlafzimmer_2" d="M284.943 90.8182C284.926 90.6742 284.857 90.5625 284.736 90.483C284.615 90.4034 284.466 90.3636 284.29 90.3636C284.161 90.3636 284.048 90.3845 283.952 90.4261C283.856 90.4678 283.781 90.5251 283.727 90.598C283.674 90.6709 283.648 90.7538 283.648 90.8466C283.648 90.9242 283.666 90.991 283.703 91.0469C283.741 91.1018 283.789 91.1477 283.848 91.1847C283.907 91.2206 283.968 91.2505 284.033 91.2741C284.097 91.2969 284.156 91.3153 284.21 91.3295L284.506 91.4091C284.581 91.429 284.666 91.4564 284.759 91.4915C284.852 91.5265 284.942 91.5743 285.027 91.6349C285.113 91.6946 285.184 91.7713 285.24 91.8651C285.296 91.9588 285.324 92.0739 285.324 92.2102C285.324 92.3674 285.283 92.5095 285.2 92.6364C285.119 92.7633 285 92.8641 284.842 92.9389C284.686 93.0137 284.496 93.0511 284.273 93.0511C284.064 93.0511 283.884 93.0175 283.732 92.9503C283.58 92.883 283.461 92.7893 283.374 92.669C283.287 92.5488 283.239 92.4091 283.227 92.25H283.591C283.6 92.3598 283.637 92.4508 283.702 92.5227C283.767 92.5937 283.849 92.6468 283.949 92.6818C284.049 92.7159 284.157 92.733 284.273 92.733C284.407 92.733 284.528 92.7112 284.635 92.6676C284.742 92.6231 284.827 92.5616 284.889 92.483C284.952 92.4034 284.983 92.3106 284.983 92.2045C284.983 92.108 284.956 92.0294 284.902 91.9688C284.848 91.9081 284.777 91.8589 284.689 91.821C284.601 91.7831 284.506 91.75 284.403 91.7216L284.045 91.6193C283.818 91.554 283.638 91.4607 283.506 91.3395C283.373 91.2183 283.307 91.0597 283.307 90.8636C283.307 90.7008 283.351 90.5587 283.439 90.4375C283.528 90.3153 283.647 90.2206 283.797 90.1534C283.947 90.0852 284.116 90.0511 284.301 90.0511C284.489 90.0511 284.655 90.0848 284.801 90.152C284.947 90.2183 285.063 90.3092 285.148 90.4247C285.234 90.5402 285.279 90.6714 285.284 90.8182H284.943ZM286.744 93.0455C286.539 93.0455 286.363 92.9972 286.216 92.9006C286.068 92.804 285.954 92.6709 285.875 92.5014C285.795 92.3319 285.755 92.1383 285.755 91.9205C285.755 91.6989 285.796 91.5033 285.877 91.3338C285.96 91.1634 286.074 91.0303 286.221 90.9347C286.369 90.8381 286.541 90.7898 286.738 90.7898C286.892 90.7898 287.03 90.8182 287.153 90.875C287.276 90.9318 287.377 91.0114 287.456 91.1136C287.534 91.2159 287.583 91.3352 287.602 91.4716H287.267C287.241 91.3722 287.184 91.2841 287.096 91.2074C287.009 91.1297 286.892 91.0909 286.744 91.0909C286.613 91.0909 286.499 91.125 286.4 91.1932C286.303 91.2604 286.226 91.3556 286.172 91.4787C286.118 91.6009 286.091 91.7443 286.091 91.9091C286.091 92.0777 286.117 92.2244 286.17 92.3494C286.224 92.4744 286.3 92.5715 286.397 92.6406C286.496 92.7098 286.611 92.7443 286.744 92.7443C286.831 92.7443 286.91 92.7292 286.981 92.6989C287.052 92.6686 287.112 92.625 287.162 92.5682C287.211 92.5114 287.246 92.4432 287.267 92.3636H287.602C287.583 92.4924 287.536 92.6084 287.461 92.7116C287.387 92.8139 287.289 92.8954 287.167 92.956C287.046 93.0156 286.905 93.0455 286.744 93.0455ZM288.427 91.6875V93H288.092V90.0909H288.427V91.1591H288.456C288.507 91.0464 288.583 90.9569 288.686 90.8906C288.789 90.8234 288.926 90.7898 289.098 90.7898C289.246 90.7898 289.377 90.8196 289.488 90.8793C289.6 90.938 289.687 91.0284 289.748 91.1506C289.811 91.2718 289.842 91.4261 289.842 91.6136V93H289.507V91.6364C289.507 91.4631 289.462 91.3291 289.372 91.2344C289.283 91.1387 289.159 91.0909 289.001 91.0909C288.891 91.0909 288.793 91.1141 288.706 91.1605C288.619 91.2069 288.551 91.2746 288.501 91.3636C288.452 91.4527 288.427 91.5606 288.427 91.6875ZM290.79 90.0909V93H290.455V90.0909H290.79ZM292.047 93.0511C291.908 93.0511 291.783 93.0251 291.67 92.973C291.557 92.92 291.468 92.8438 291.402 92.7443C291.335 92.6439 291.302 92.5227 291.302 92.3807C291.302 92.2557 291.327 92.1544 291.376 92.0767C291.425 91.9981 291.491 91.9366 291.574 91.892C291.656 91.8475 291.747 91.8144 291.846 91.7926C291.947 91.7699 292.047 91.7519 292.149 91.7386C292.281 91.7216 292.389 91.7088 292.471 91.7003C292.555 91.6908 292.615 91.6752 292.653 91.6534C292.692 91.6316 292.711 91.5937 292.711 91.5398V91.5284C292.711 91.3883 292.673 91.2794 292.596 91.2017C292.52 91.1241 292.405 91.0852 292.251 91.0852C292.091 91.0852 291.966 91.1203 291.875 91.1903C291.784 91.2604 291.72 91.3352 291.683 91.4148L291.365 91.3011C291.422 91.1686 291.497 91.0653 291.592 90.9915C291.688 90.9167 291.792 90.8646 291.904 90.8352C292.018 90.8049 292.13 90.7898 292.24 90.7898C292.31 90.7898 292.39 90.7983 292.481 90.8153C292.573 90.8314 292.662 90.8651 292.747 90.9162C292.833 90.9673 292.904 91.0445 292.961 91.1477C293.018 91.2509 293.047 91.3892 293.047 91.5625V93H292.711V92.7045H292.694C292.672 92.7519 292.634 92.8026 292.581 92.8565C292.528 92.9105 292.457 92.9564 292.369 92.9943C292.281 93.0322 292.173 93.0511 292.047 93.0511ZM292.098 92.75C292.23 92.75 292.342 92.724 292.433 92.6719C292.525 92.6198 292.594 92.5526 292.64 92.4702C292.688 92.3878 292.711 92.3011 292.711 92.2102V91.9034C292.697 91.9205 292.666 91.9361 292.618 91.9503C292.57 91.9635 292.515 91.9754 292.453 91.9858C292.391 91.9953 292.331 92.0038 292.272 92.0114C292.215 92.018 292.168 92.0237 292.132 92.0284C292.045 92.0398 291.963 92.0582 291.887 92.0838C291.813 92.1084 291.752 92.1458 291.706 92.196C291.66 92.2453 291.637 92.3125 291.637 92.3977C291.637 92.5142 291.681 92.6023 291.767 92.6619C291.854 92.7206 291.964 92.75 292.098 92.75ZM294.63 90.8182V91.1023H293.454V90.8182H294.63ZM293.806 93V90.517C293.806 90.392 293.835 90.2879 293.894 90.2045C293.953 90.1212 294.029 90.0587 294.123 90.017C294.217 89.9754 294.316 89.9545 294.42 89.9545C294.502 89.9545 294.569 89.9612 294.621 89.9744C294.674 89.9877 294.712 90 294.738 90.0114L294.641 90.3011C294.624 90.2955 294.601 90.2884 294.57 90.2798C294.541 90.2713 294.502 90.267 294.454 90.267C294.343 90.267 294.263 90.295 294.214 90.3509C294.165 90.4067 294.141 90.4886 294.141 90.5966V93H293.806ZM295.037 93V92.7443L296.276 91.1534V91.1307H295.077V90.8182H296.708V91.0852L295.503 92.6648V92.6875H296.748V93H295.037ZM297.264 93V90.8182H297.599V93H297.264ZM297.434 90.4545C297.369 90.4545 297.313 90.4323 297.265 90.3878C297.219 90.3433 297.196 90.2898 297.196 90.2273C297.196 90.1648 297.219 90.1113 297.265 90.0668C297.313 90.0223 297.369 90 297.434 90C297.5 90 297.556 90.0223 297.602 90.0668C297.649 90.1113 297.673 90.1648 297.673 90.2273C297.673 90.2898 297.649 90.3433 297.602 90.3878C297.556 90.4323 297.5 90.4545 297.434 90.4545ZM298.213 93V90.8182H298.537V91.1591H298.565C298.611 91.0426 298.684 90.9522 298.786 90.8878C298.887 90.8224 299.009 90.7898 299.151 90.7898C299.295 90.7898 299.414 90.8224 299.51 90.8878C299.607 90.9522 299.682 91.0426 299.736 91.1591H299.759C299.814 91.0464 299.898 90.9569 300.01 90.8906C300.122 90.8234 300.256 90.7898 300.412 90.7898C300.607 90.7898 300.767 90.8509 300.891 90.973C301.015 91.0942 301.077 91.2831 301.077 91.5398V93H300.741V91.5398C300.741 91.3788 300.697 91.2637 300.609 91.1946C300.521 91.1255 300.418 91.0909 300.298 91.0909C300.145 91.0909 300.026 91.1373 299.942 91.2301C299.857 91.322 299.815 91.4384 299.815 91.5795V93H299.474V91.5057C299.474 91.3816 299.434 91.2817 299.354 91.206C299.273 91.1293 299.17 91.0909 299.043 91.0909C298.955 91.0909 298.874 91.1141 298.798 91.1605C298.723 91.2069 298.663 91.2713 298.616 91.3537C298.571 91.4351 298.548 91.5294 298.548 91.6364V93H298.213ZM301.69 93V90.8182H302.013V91.1591H302.042C302.087 91.0426 302.161 90.9522 302.262 90.8878C302.363 90.8224 302.485 90.7898 302.627 90.7898C302.771 90.7898 302.891 90.8224 302.987 90.8878C303.083 90.9522 303.158 91.0426 303.212 91.1591H303.235C303.291 91.0464 303.375 90.9569 303.487 90.8906C303.598 90.8234 303.732 90.7898 303.888 90.7898C304.084 90.7898 304.243 90.8509 304.367 90.973C304.491 91.0942 304.553 91.2831 304.553 91.5398V93H304.218V91.5398C304.218 91.3788 304.174 91.2637 304.086 91.1946C303.998 91.1255 303.894 91.0909 303.775 91.0909C303.621 91.0909 303.503 91.1373 303.418 91.2301C303.334 91.322 303.292 91.4384 303.292 91.5795V93H302.951V91.5057C302.951 91.3816 302.911 91.2817 302.83 91.206C302.75 91.1293 302.646 91.0909 302.519 91.0909C302.432 91.0909 302.351 91.1141 302.275 91.1605C302.2 91.2069 302.139 91.2713 302.093 91.3537C302.048 91.4351 302.025 91.5294 302.025 91.6364V93H301.69ZM306.081 93.0455C305.871 93.0455 305.689 92.9991 305.537 92.9062C305.385 92.8125 305.268 92.6818 305.186 92.5142C305.105 92.3456 305.064 92.1496 305.064 91.9261C305.064 91.7027 305.105 91.5057 305.186 91.3352C305.268 91.1638 305.383 91.0303 305.53 90.9347C305.678 90.8381 305.85 90.7898 306.047 90.7898C306.161 90.7898 306.273 90.8087 306.384 90.8466C306.494 90.8845 306.595 90.946 306.686 91.0312C306.777 91.1155 306.849 91.2273 306.903 91.3665C306.957 91.5057 306.984 91.6771 306.984 91.8807V92.0227H305.303V91.733H306.643C306.643 91.6098 306.619 91.5 306.57 91.4034C306.521 91.3068 306.452 91.2306 306.362 91.1747C306.273 91.1188 306.168 91.0909 306.047 91.0909C305.913 91.0909 305.798 91.1241 305.7 91.1903C305.604 91.2557 305.529 91.3409 305.477 91.446C305.425 91.5511 305.399 91.6638 305.399 91.7841V91.9773C305.399 92.142 305.428 92.2817 305.484 92.3963C305.542 92.5099 305.622 92.5966 305.724 92.6562C305.827 92.715 305.946 92.7443 306.081 92.7443C306.169 92.7443 306.249 92.732 306.32 92.7074C306.392 92.6818 306.454 92.6439 306.506 92.5938C306.558 92.5426 306.598 92.4792 306.626 92.4034L306.95 92.4943C306.916 92.6042 306.859 92.7008 306.778 92.7841C306.698 92.8665 306.598 92.9309 306.48 92.9773C306.362 93.0227 306.229 93.0455 306.081 93.0455ZM307.494 93V90.8182H307.818V91.1477H307.841C307.881 91.0398 307.953 90.9522 308.057 90.8849C308.161 90.8177 308.278 90.7841 308.409 90.7841C308.434 90.7841 308.464 90.7846 308.501 90.7855C308.538 90.7865 308.566 90.7879 308.585 90.7898V91.1307C308.574 91.1278 308.548 91.1236 308.507 91.1179C308.467 91.1113 308.425 91.108 308.381 91.108C308.275 91.108 308.18 91.1302 308.097 91.1747C308.014 91.2183 307.949 91.2789 307.901 91.3565C307.853 91.4332 307.83 91.5208 307.83 91.6193V93H307.494Z" fill="black"/>
<g id="Rectangle 11">
<mask id="path-11-inside-3_1_2" fill="white">
<path d="M296 115H340V129H296V115Z"/>
</mask>
<path d="M340 115H339V129H340H341V115H340ZM296 129H297V115H296H295V129H296Z" fill="black" mask="url(#path-11-inside-3_1_2)"/>
</g>
</g>
<g id="Toilette">
<g id="Rectangle 7">
<mask id="path-13-inside-4_1_2" fill="white">
<path d="M281 140H297V166H281V140Z"/>
</mask>
<path d="M297 140H298V139H297V140ZM297 166V167H298V166H297ZM281 140V141H297V140V139H281V140ZM297 140H296V166H297H298V140H297ZM297 166V165H281V166V167H297V166Z" fill="black" mask="url(#path-13-inside-4_1_2)"/>
</g>
<path id="Toilette_2" d="M281.193 159.403V159.091H283.375V159.403H282.46V162H282.108V159.403H281.193ZM284.443 162.045C284.246 162.045 284.073 161.999 283.925 161.905C283.777 161.811 283.661 161.68 283.578 161.511C283.496 161.343 283.455 161.146 283.455 160.92C283.455 160.693 283.496 160.495 283.578 160.325C283.661 160.156 283.777 160.024 283.925 159.93C284.073 159.837 284.246 159.79 284.443 159.79C284.64 159.79 284.813 159.837 284.96 159.93C285.109 160.024 285.224 160.156 285.307 160.325C285.39 160.495 285.432 160.693 285.432 160.92C285.432 161.146 285.39 161.343 285.307 161.511C285.224 161.68 285.109 161.811 284.96 161.905C284.813 161.999 284.64 162.045 284.443 162.045ZM284.443 161.744C284.593 161.744 284.716 161.706 284.812 161.629C284.909 161.553 284.981 161.452 285.027 161.327C285.073 161.202 285.097 161.066 285.097 160.92C285.097 160.775 285.073 160.639 285.027 160.513C284.981 160.387 284.909 160.285 284.812 160.207C284.716 160.13 284.593 160.091 284.443 160.091C284.294 160.091 284.17 160.13 284.074 160.207C283.977 160.285 283.906 160.387 283.859 160.513C283.813 160.639 283.79 160.775 283.79 160.92C283.79 161.066 283.813 161.202 283.859 161.327C283.906 161.452 283.977 161.553 284.074 161.629C284.17 161.706 284.294 161.744 284.443 161.744ZM285.944 162V159.818H286.279V162H285.944ZM286.114 159.455C286.049 159.455 285.992 159.432 285.945 159.388C285.899 159.343 285.875 159.29 285.875 159.227C285.875 159.165 285.899 159.111 285.945 159.067C285.992 159.022 286.049 159 286.114 159C286.179 159 286.235 159.022 286.282 159.067C286.329 159.111 286.353 159.165 286.353 159.227C286.353 159.29 286.329 159.343 286.282 159.388C286.235 159.432 286.179 159.455 286.114 159.455ZM287.228 159.091V162H286.893V159.091H287.228ZM288.757 162.045C288.547 162.045 288.365 161.999 288.213 161.906C288.061 161.812 287.944 161.682 287.862 161.514C287.78 161.346 287.74 161.15 287.74 160.926C287.74 160.703 287.78 160.506 287.862 160.335C287.944 160.164 288.059 160.03 288.206 159.935C288.353 159.838 288.526 159.79 288.723 159.79C288.836 159.79 288.949 159.809 289.059 159.847C289.17 159.884 289.271 159.946 289.362 160.031C289.453 160.116 289.525 160.227 289.579 160.366C289.633 160.506 289.66 160.677 289.66 160.881V161.023H287.978V160.733H289.319C289.319 160.61 289.295 160.5 289.245 160.403C289.197 160.307 289.128 160.231 289.038 160.175C288.949 160.119 288.844 160.091 288.723 160.091C288.589 160.091 288.474 160.124 288.376 160.19C288.279 160.256 288.205 160.341 288.153 160.446C288.101 160.551 288.075 160.664 288.075 160.784V160.977C288.075 161.142 288.103 161.282 288.16 161.396C288.218 161.51 288.298 161.597 288.4 161.656C288.502 161.715 288.621 161.744 288.757 161.744C288.845 161.744 288.924 161.732 288.995 161.707C289.067 161.682 289.129 161.644 289.181 161.594C289.234 161.543 289.274 161.479 289.302 161.403L289.626 161.494C289.592 161.604 289.535 161.701 289.454 161.784C289.374 161.866 289.274 161.931 289.156 161.977C289.038 162.023 288.904 162.045 288.757 162.045ZM291.119 159.818V160.102H289.988V159.818H291.119ZM290.318 159.295H290.653V161.375C290.653 161.47 290.667 161.541 290.694 161.588C290.723 161.634 290.759 161.666 290.802 161.682C290.847 161.697 290.894 161.705 290.943 161.705C290.98 161.705 291.01 161.703 291.034 161.699C291.057 161.694 291.076 161.69 291.091 161.688L291.159 161.989C291.136 161.997 291.104 162.006 291.064 162.014C291.023 162.024 290.971 162.028 290.909 162.028C290.814 162.028 290.721 162.008 290.63 161.967C290.54 161.927 290.466 161.865 290.406 161.781C290.347 161.698 290.318 161.593 290.318 161.466V159.295ZM292.572 159.818V160.102H291.441V159.818H292.572ZM291.771 159.295H292.106V161.375C292.106 161.47 292.12 161.541 292.147 161.588C292.176 161.634 292.212 161.666 292.255 161.682C292.3 161.697 292.347 161.705 292.396 161.705C292.433 161.705 292.463 161.703 292.487 161.699C292.511 161.694 292.529 161.69 292.544 161.688L292.612 161.989C292.589 161.997 292.557 162.006 292.517 162.014C292.476 162.024 292.424 162.028 292.362 162.028C292.267 162.028 292.174 162.008 292.083 161.967C291.993 161.927 291.919 161.865 291.859 161.781C291.8 161.698 291.771 161.593 291.771 161.466V159.295ZM293.968 162.045C293.757 162.045 293.576 161.999 293.424 161.906C293.272 161.812 293.155 161.682 293.073 161.514C292.991 161.346 292.951 161.15 292.951 160.926C292.951 160.703 292.991 160.506 293.073 160.335C293.155 160.164 293.27 160.03 293.417 159.935C293.564 159.838 293.737 159.79 293.934 159.79C294.047 159.79 294.159 159.809 294.27 159.847C294.381 159.884 294.482 159.946 294.573 160.031C294.664 160.116 294.736 160.227 294.79 160.366C294.844 160.506 294.871 160.677 294.871 160.881V161.023H293.189V160.733H294.53C294.53 160.61 294.506 160.5 294.456 160.403C294.408 160.307 294.339 160.231 294.249 160.175C294.16 160.119 294.055 160.091 293.934 160.091C293.8 160.091 293.685 160.124 293.587 160.19C293.49 160.256 293.416 160.341 293.364 160.446C293.312 160.551 293.286 160.664 293.286 160.784V160.977C293.286 161.142 293.314 161.282 293.371 161.396C293.429 161.51 293.509 161.597 293.611 161.656C293.713 161.715 293.832 161.744 293.968 161.744C294.056 161.744 294.135 161.732 294.206 161.707C294.278 161.682 294.34 161.644 294.392 161.594C294.444 161.543 294.485 161.479 294.513 161.403L294.837 161.494C294.803 161.604 294.746 161.701 294.665 161.784C294.585 161.866 294.485 161.931 294.367 161.977C294.248 162.023 294.115 162.045 293.968 162.045Z" fill="black"/>
</g>
<g id="HWR">
<g id="Rectangle 2">
<mask id="path-16-inside-5_1_2" fill="white">
<path d="M249 87H281V116H249V87Z"/>
</mask>
<path d="M281 87H282V86H281V87ZM281 116V117H282V116H281ZM249 87V88H281V87V86H249V87ZM281 87H280V116H281H282V87H281ZM281 116V115H249V116V117H281V116Z" fill="black" mask="url(#path-16-inside-5_1_2)"/>
</g>
<path id="HWR_2" d="M250.352 93V90.0909H250.705V91.3864H252.256V90.0909H252.608V93H252.256V91.6989H250.705V93H250.352ZM253.842 93L253.046 90.0909H253.404L254.012 92.4602H254.04L254.66 90.0909H255.058L255.677 92.4602H255.705L256.313 90.0909H256.671L255.876 93H255.512L254.87 90.6818H254.847L254.205 93H253.842ZM257.11 93V90.0909H258.093C258.32 90.0909 258.507 90.1297 258.653 90.2074C258.799 90.2841 258.906 90.3897 258.977 90.5241C259.047 90.6586 259.082 90.8116 259.082 90.983C259.082 91.1544 259.047 91.3063 258.977 91.4389C258.906 91.5715 258.799 91.6757 258.654 91.7514C258.509 91.8262 258.324 91.8636 258.099 91.8636H257.303V91.5455H258.087C258.243 91.5455 258.368 91.5227 258.462 91.4773C258.558 91.4318 258.627 91.3674 258.67 91.2841C258.713 91.1998 258.735 91.0994 258.735 90.983C258.735 90.8665 258.713 90.7647 258.67 90.6776C258.626 90.5904 258.557 90.5232 258.461 90.4759C258.365 90.4276 258.239 90.4034 258.082 90.4034H257.462V93H257.11ZM258.479 91.6932L259.195 93H258.786L258.082 91.6932H258.479Z" fill="black"/>
</g>
<g id="Badezimmer">
<rect id="Rectangle 5" x="296.5" y="129.5" width="43" height="36" stroke="black"/>
<path id="Badezimmer_2" d="M299.352 135V132.091H300.369C300.572 132.091 300.739 132.126 300.871 132.196C301.002 132.265 301.1 132.358 301.165 132.476C301.229 132.592 301.261 132.722 301.261 132.864C301.261 132.989 301.239 133.092 301.195 133.173C301.151 133.255 301.093 133.319 301.021 133.366C300.95 133.414 300.873 133.449 300.79 133.472V133.5C300.879 133.506 300.968 133.537 301.058 133.594C301.148 133.651 301.223 133.732 301.284 133.838C301.345 133.944 301.375 134.074 301.375 134.227C301.375 134.373 301.342 134.504 301.276 134.621C301.209 134.737 301.105 134.83 300.962 134.898C300.819 134.966 300.633 135 300.403 135H299.352ZM299.705 134.688H300.403C300.634 134.688 300.797 134.643 300.893 134.554C300.991 134.464 301.04 134.355 301.04 134.227C301.04 134.129 301.015 134.038 300.964 133.955C300.914 133.87 300.843 133.803 300.75 133.753C300.657 133.702 300.547 133.676 300.42 133.676H299.705V134.688ZM299.705 133.369H300.358C300.464 133.369 300.56 133.348 300.645 133.307C300.731 133.265 300.799 133.206 300.849 133.131C300.901 133.055 300.926 132.966 300.926 132.864C300.926 132.736 300.882 132.627 300.793 132.538C300.704 132.448 300.563 132.403 300.369 132.403H299.705V133.369ZM302.55 135.051C302.412 135.051 302.287 135.025 302.174 134.973C302.061 134.92 301.972 134.844 301.906 134.744C301.839 134.644 301.806 134.523 301.806 134.381C301.806 134.256 301.831 134.154 301.88 134.077C301.929 133.998 301.995 133.937 302.077 133.892C302.16 133.848 302.251 133.814 302.35 133.793C302.451 133.77 302.551 133.752 302.653 133.739C302.785 133.722 302.893 133.709 302.975 133.7C303.058 133.691 303.119 133.675 303.157 133.653C303.196 133.632 303.215 133.594 303.215 133.54V133.528C303.215 133.388 303.177 133.279 303.1 133.202C303.024 133.124 302.909 133.085 302.755 133.085C302.595 133.085 302.469 133.12 302.379 133.19C302.288 133.26 302.224 133.335 302.187 133.415L301.869 133.301C301.925 133.169 302.001 133.065 302.096 132.991C302.192 132.917 302.296 132.865 302.408 132.835C302.522 132.805 302.634 132.79 302.744 132.79C302.814 132.79 302.894 132.798 302.985 132.815C303.077 132.831 303.165 132.865 303.251 132.916C303.337 132.967 303.408 133.045 303.465 133.148C303.522 133.251 303.55 133.389 303.55 133.562V135H303.215V134.705H303.198C303.175 134.752 303.138 134.803 303.085 134.857C303.031 134.911 302.961 134.956 302.873 134.994C302.785 135.032 302.677 135.051 302.55 135.051ZM302.602 134.75C302.734 134.75 302.846 134.724 302.937 134.672C303.029 134.62 303.098 134.553 303.144 134.47C303.192 134.388 303.215 134.301 303.215 134.21V133.903C303.201 133.92 303.17 133.936 303.121 133.95C303.074 133.964 303.019 133.975 302.957 133.986C302.895 133.995 302.835 134.004 302.776 134.011C302.719 134.018 302.672 134.024 302.636 134.028C302.549 134.04 302.467 134.058 302.391 134.084C302.317 134.108 302.256 134.146 302.21 134.196C302.164 134.245 302.141 134.312 302.141 134.398C302.141 134.514 302.184 134.602 302.271 134.662C302.358 134.721 302.468 134.75 302.602 134.75ZM304.986 135.045C304.804 135.045 304.644 135 304.505 134.908C304.365 134.815 304.257 134.684 304.178 134.516C304.099 134.346 304.06 134.146 304.06 133.915C304.06 133.686 304.099 133.487 304.178 133.318C304.257 133.15 304.366 133.019 304.506 132.928C304.646 132.836 304.808 132.79 304.992 132.79C305.134 132.79 305.246 132.813 305.328 132.861C305.412 132.907 305.475 132.96 305.519 133.02C305.563 133.079 305.598 133.127 305.623 133.165H305.651V132.091H305.986V135H305.662V134.665H305.623C305.598 134.705 305.563 134.755 305.517 134.815C305.472 134.875 305.407 134.929 305.323 134.976C305.239 135.022 305.126 135.045 304.986 135.045ZM305.032 134.744C305.166 134.744 305.28 134.709 305.373 134.639C305.465 134.568 305.536 134.47 305.584 134.345C305.632 134.219 305.657 134.074 305.657 133.909C305.657 133.746 305.633 133.604 305.586 133.482C305.538 133.358 305.468 133.263 305.375 133.195C305.283 133.125 305.168 133.091 305.032 133.091C304.89 133.091 304.771 133.127 304.676 133.2C304.583 133.272 304.512 133.37 304.465 133.494C304.418 133.617 304.395 133.756 304.395 133.909C304.395 134.064 304.419 134.205 304.466 134.332C304.515 134.458 304.586 134.559 304.679 134.634C304.774 134.707 304.891 134.744 305.032 134.744ZM307.561 135.045C307.351 135.045 307.17 134.999 307.017 134.906C306.866 134.812 306.749 134.682 306.667 134.514C306.585 134.346 306.544 134.15 306.544 133.926C306.544 133.703 306.585 133.506 306.667 133.335C306.749 133.164 306.864 133.03 307.01 132.935C307.158 132.838 307.33 132.79 307.527 132.79C307.641 132.79 307.753 132.809 307.864 132.847C307.975 132.884 308.076 132.946 308.167 133.031C308.257 133.116 308.33 133.227 308.384 133.366C308.438 133.506 308.465 133.677 308.465 133.881V134.023H306.783V133.733H308.124C308.124 133.61 308.099 133.5 308.05 133.403C308.002 133.307 307.933 133.231 307.843 133.175C307.754 133.119 307.649 133.091 307.527 133.091C307.394 133.091 307.278 133.124 307.181 133.19C307.084 133.256 307.01 133.341 306.958 133.446C306.906 133.551 306.88 133.664 306.88 133.784V133.977C306.88 134.142 306.908 134.282 306.965 134.396C307.023 134.51 307.103 134.597 307.205 134.656C307.307 134.715 307.426 134.744 307.561 134.744C307.65 134.744 307.729 134.732 307.8 134.707C307.872 134.682 307.934 134.644 307.986 134.594C308.038 134.543 308.078 134.479 308.107 134.403L308.431 134.494C308.397 134.604 308.339 134.701 308.259 134.784C308.178 134.866 308.079 134.931 307.961 134.977C307.842 135.023 307.709 135.045 307.561 135.045ZM308.912 135V134.744L310.151 133.153V133.131H308.952V132.818H310.583V133.085L309.378 134.665V134.688H310.623V135H308.912ZM311.139 135V132.818H311.474V135H311.139ZM311.309 132.455C311.244 132.455 311.188 132.432 311.14 132.388C311.094 132.343 311.071 132.29 311.071 132.227C311.071 132.165 311.094 132.111 311.14 132.067C311.188 132.022 311.244 132 311.309 132C311.375 132 311.431 132.022 311.477 132.067C311.524 132.111 311.548 132.165 311.548 132.227C311.548 132.29 311.524 132.343 311.477 132.388C311.431 132.432 311.375 132.455 311.309 132.455ZM312.088 135V132.818H312.412V133.159H312.44C312.486 133.043 312.559 132.952 312.661 132.888C312.762 132.822 312.884 132.79 313.026 132.79C313.17 132.79 313.289 132.822 313.385 132.888C313.482 132.952 313.557 133.043 313.611 133.159H313.634C313.689 133.046 313.773 132.957 313.885 132.891C313.997 132.823 314.131 132.79 314.287 132.79C314.482 132.79 314.642 132.851 314.766 132.973C314.89 133.094 314.952 133.283 314.952 133.54V135H314.616V133.54C314.616 133.379 314.572 133.264 314.484 133.195C314.396 133.125 314.293 133.091 314.173 133.091C314.02 133.091 313.901 133.137 313.817 133.23C313.732 133.322 313.69 133.438 313.69 133.58V135H313.349V133.506C313.349 133.382 313.309 133.282 313.229 133.206C313.148 133.129 313.045 133.091 312.918 133.091C312.83 133.091 312.749 133.114 312.673 133.161C312.598 133.207 312.538 133.271 312.491 133.354C312.446 133.435 312.423 133.529 312.423 133.636V135H312.088ZM315.565 135V132.818H315.888V133.159H315.917C315.962 133.043 316.036 132.952 316.137 132.888C316.238 132.822 316.36 132.79 316.502 132.79C316.646 132.79 316.766 132.822 316.862 132.888C316.958 132.952 317.033 133.043 317.087 133.159H317.11C317.166 133.046 317.25 132.957 317.362 132.891C317.473 132.823 317.607 132.79 317.763 132.79C317.959 132.79 318.118 132.851 318.242 132.973C318.366 133.094 318.428 133.283 318.428 133.54V135H318.093V133.54C318.093 133.379 318.049 133.264 317.961 133.195C317.873 133.125 317.769 133.091 317.65 133.091C317.496 133.091 317.378 133.137 317.293 133.23C317.209 133.322 317.167 133.438 317.167 133.58V135H316.826V133.506C316.826 133.382 316.786 133.282 316.705 133.206C316.625 133.129 316.521 133.091 316.394 133.091C316.307 133.091 316.226 133.114 316.15 133.161C316.075 133.207 316.014 133.271 315.968 133.354C315.923 133.435 315.9 133.529 315.9 133.636V135H315.565ZM319.956 135.045C319.746 135.045 319.564 134.999 319.412 134.906C319.26 134.812 319.143 134.682 319.061 134.514C318.98 134.346 318.939 134.15 318.939 133.926C318.939 133.703 318.98 133.506 319.061 133.335C319.143 133.164 319.258 133.03 319.405 132.935C319.553 132.838 319.725 132.79 319.922 132.79C320.036 132.79 320.148 132.809 320.259 132.847C320.369 132.884 320.47 132.946 320.561 133.031C320.652 133.116 320.724 133.227 320.778 133.366C320.832 133.506 320.859 133.677 320.859 133.881V134.023H319.178V133.733H320.518C320.518 133.61 320.494 133.5 320.445 133.403C320.396 133.307 320.327 133.231 320.237 133.175C320.148 133.119 320.043 133.091 319.922 133.091C319.788 133.091 319.673 133.124 319.575 133.19C319.479 133.256 319.404 133.341 319.352 133.446C319.3 133.551 319.274 133.664 319.274 133.784V133.977C319.274 134.142 319.303 134.282 319.359 134.396C319.417 134.51 319.497 134.597 319.599 134.656C319.702 134.715 319.821 134.744 319.956 134.744C320.044 134.744 320.124 134.732 320.195 134.707C320.267 134.682 320.329 134.644 320.381 134.594C320.433 134.543 320.473 134.479 320.501 134.403L320.825 134.494C320.791 134.604 320.734 134.701 320.653 134.784C320.573 134.866 320.473 134.931 320.355 134.977C320.237 135.023 320.104 135.045 319.956 135.045ZM321.369 135V132.818H321.693V133.148H321.716C321.756 133.04 321.828 132.952 321.932 132.885C322.036 132.818 322.153 132.784 322.284 132.784C322.309 132.784 322.339 132.785 322.376 132.786C322.413 132.786 322.441 132.788 322.46 132.79V133.131C322.449 133.128 322.423 133.124 322.382 133.118C322.342 133.111 322.3 133.108 322.256 133.108C322.15 133.108 322.055 133.13 321.972 133.175C321.889 133.218 321.824 133.279 321.776 133.357C321.728 133.433 321.705 133.521 321.705 133.619V135H321.369Z" fill="black"/>
</g>
<g id="Flur">
<g id="Rectangle 6">
<mask id="path-21-inside-6_1_2" fill="white">
<path d="M249 115H281V191H249V115Z"/>
</mask>
<path d="M281 115H282V114H281V115ZM281 191V192H282V191H281ZM249 115V116H281V115V114H249V115ZM281 115H280V191H281H282V115H281ZM281 191V190H249V191V192H281V191Z" fill="black" mask="url(#path-21-inside-6_1_2)"/>
</g>
<g id="Rectangle 10">
<mask id="path-23-outside-7_1_2" maskUnits="userSpaceOnUse" x="280" y="115" width="16" height="25" fill="black">
<rect fill="white" x="280" y="115" width="16" height="25"/>
<path d="M280 116H296V140H280V116Z"/>
</mask>
<path d="M280 116H296V140H280V116Z" fill="white"/>
<path d="M280 116V117H296V116V115H280V116Z" fill="black" mask="url(#path-23-outside-7_1_2)"/>
</g>
<path id="Flur_2" d="M250.352 188.955V186.045H252.097V186.358H250.705V187.341H251.966V187.653H250.705V188.955H250.352ZM252.99 186.045V188.955H252.654V186.045H252.99ZM254.979 188.062V186.773H255.314V188.955H254.979V188.585H254.956C254.905 188.696 254.825 188.79 254.717 188.868C254.609 188.945 254.473 188.983 254.308 188.983C254.172 188.983 254.051 188.953 253.945 188.893C253.839 188.833 253.755 188.742 253.695 188.621C253.634 188.499 253.604 188.345 253.604 188.159V186.773H253.939V188.136C253.939 188.295 253.983 188.422 254.072 188.517C254.162 188.612 254.277 188.659 254.416 188.659C254.5 188.659 254.584 188.638 254.67 188.595C254.758 188.553 254.83 188.487 254.889 188.399C254.949 188.311 254.979 188.199 254.979 188.062ZM255.928 188.955V186.773H256.252V187.102H256.275C256.314 186.994 256.386 186.907 256.49 186.839C256.595 186.772 256.712 186.739 256.843 186.739C256.867 186.739 256.898 186.739 256.935 186.74C256.972 186.741 257 186.742 257.019 186.744V187.085C257.007 187.082 256.981 187.078 256.941 187.072C256.901 187.066 256.859 187.062 256.814 187.062C256.708 187.062 256.614 187.085 256.53 187.129C256.448 187.173 256.382 187.233 256.334 187.311C256.287 187.388 256.263 187.475 256.263 187.574V188.955H255.928Z" fill="black"/>
</g>
</g>
</svg>
